<svg width="40" height="40" viewBox="0 0 40 40" fill="none" xmlns="http://www.w3.org/2000/svg">
<path d="M33.7498 20.2342H19.7654V6.24984C19.7654 6.07797 19.6248 5.93734 19.4529 5.93734H18.4373C16.3854 5.93398 14.353 6.33639 12.4571 7.12141C10.5613 7.90644 8.83936 9.05858 7.39044 10.5116C5.96352 11.9341 4.82657 13.6203 4.04278 15.4764C3.22717 17.4016 2.80866 19.4716 2.81231 21.5623C2.80895 23.6143 3.21136 25.6467 3.99638 27.5425C4.7814 29.4384 5.93355 31.1603 7.38653 32.6092C8.82012 34.0428 10.492 35.1717 12.3514 35.9569C14.2765 36.7725 16.3465 37.191 18.4373 37.1873C20.4893 37.1907 22.5216 36.7883 24.4175 36.0033C26.3133 35.2183 28.0353 34.0661 29.4842 32.6131C30.9178 31.1795 32.0467 29.5077 32.8318 27.6483C33.6474 25.7231 34.066 23.6531 34.0623 21.5623V20.5467C34.0623 20.3748 33.9217 20.2342 33.7498 20.2342ZM27.5662 30.7733C26.3566 31.9734 24.9221 32.9231 23.3449 33.568C21.7677 34.2128 20.0787 34.5401 18.3748 34.5311C14.9334 34.5155 11.699 33.1678 9.26544 30.7342C6.81622 28.285 5.46856 25.0272 5.46856 21.5623C5.46856 18.0975 6.81622 14.8397 9.26544 12.3905C11.3982 10.2577 14.1443 8.95688 17.1092 8.66V22.8905H31.3397C31.0389 25.8709 29.7264 28.6327 27.5662 30.7733ZM37.1873 18.0623L37.0857 16.9608C36.7537 13.3631 35.1561 9.96859 32.5857 7.40609C30.0137 4.83889 26.6261 3.2501 23.0076 2.91391L21.9022 2.81234C21.7186 2.79672 21.5623 2.93734 21.5623 3.12094V18.1248C21.5623 18.2967 21.7029 18.4373 21.8748 18.4373L36.8748 18.3983C37.0584 18.3983 37.2029 18.242 37.1873 18.0623ZM24.2107 15.7889V5.76547C26.6714 6.2805 28.9296 7.49913 30.7107 9.27328C32.4959 11.0545 33.7186 13.3202 34.2264 15.7616L24.2107 15.7889Z" fill="#2A3135"/>
</svg>
