<svg width="40" height="40" viewBox="0 0 40 40" fill="none" xmlns="http://www.w3.org/2000/svg">
<path d="M34.6875 30.9375H7.8125V6.5625C7.8125 6.39062 7.67188 6.25 7.5 6.25H5.3125C5.14062 6.25 5 6.39062 5 6.5625V33.4375C5 33.6094 5.14062 33.75 5.3125 33.75H34.6875C34.8594 33.75 35 33.6094 35 33.4375V31.25C35 31.0781 34.8594 30.9375 34.6875 30.9375ZM11.25 27.8125H13.4375C13.6094 27.8125 13.75 27.6719 13.75 27.5V21.875C13.75 21.7031 13.6094 21.5625 13.4375 21.5625H11.25C11.0781 21.5625 10.9375 21.7031 10.9375 21.875V27.5C10.9375 27.6719 11.0781 27.8125 11.25 27.8125ZM17.1875 27.8125H19.375C19.5469 27.8125 19.6875 27.6719 19.6875 27.5V15C19.6875 14.8281 19.5469 14.6875 19.375 14.6875H17.1875C17.0156 14.6875 16.875 14.8281 16.875 15V27.5C16.875 27.6719 17.0156 27.8125 17.1875 27.8125ZM23.125 27.8125H25.3125C25.4844 27.8125 25.625 27.6719 25.625 27.5V18.0469C25.625 17.875 25.4844 17.7344 25.3125 17.7344H23.125C22.9531 17.7344 22.8125 17.875 22.8125 18.0469V27.5C22.8125 27.6719 22.9531 27.8125 23.125 27.8125ZM29.0625 27.8125H31.25C31.4219 27.8125 31.5625 27.6719 31.5625 27.5V11.875C31.5625 11.7031 31.4219 11.5625 31.25 11.5625H29.0625C28.8906 11.5625 28.75 11.7031 28.75 11.875V27.5C28.75 27.6719 28.8906 27.8125 29.0625 27.8125Z" fill="#2A3135"/>
</svg>
