<svg width="72" height="72" viewBox="0 0 72 72" fill="none" xmlns="http://www.w3.org/2000/svg">
<rect width="72" height="72" fill="none"/>
<path d="M45.8556 58.7222C47.4482 59.5741 49.2259 60 51.1889 60C52.7815 60 54.2352 59.7222 55.55 59.1667C56.8834 58.6111 58.0037 57.8056 58.9111 56.75L56.5778 54.5278C55.1704 56.0648 53.4389 56.8333 51.3834 56.8333C50.05 56.8333 48.8556 56.5463 47.8 55.9722C46.7445 55.3796 45.9204 54.5648 45.3278 53.5278C45.0034 52.9601 44.7678 52.3508 44.621 51.7H40.9254C41.1144 52.9397 41.5171 54.086 42.1334 55.1389C43.0408 56.6574 44.2815 57.8519 45.8556 58.7222Z" fill="#2A3135"/>
<path d="M40.928 48.3C41.121 47.0602 41.532 45.9139 42.1611 44.8611C43.0685 43.3426 44.3093 42.1574 45.8834 41.3056C47.4759 40.4352 49.2537 40 51.2167 40C52.8093 40 54.263 40.2778 55.5778 40.8333C56.8926 41.3889 58.0037 42.1944 58.9111 43.25L56.5778 45.4444C55.1704 43.9259 53.4389 43.1667 51.3834 43.1667C50.05 43.1667 48.8556 43.463 47.8 44.0556C46.7445 44.6296 45.9204 45.4352 45.3278 46.4722C45.0034 47.0399 44.7678 47.6491 44.621 48.3H40.928Z" fill="#2A3135"/>
<path d="M15.7 40H12V60H15.7V40Z" fill="#2A3135"/>
<path d="M19.1 60H20.7429C22.8762 60 24.7714 59.5905 26.4286 58.7714C28.0857 57.9333 29.3714 56.7619 30.2857 55.2571C31.2 53.7333 31.6571 51.981 31.6571 50C31.6571 48.019 31.2 46.2762 30.2857 44.7714C29.3714 43.2476 28.0857 42.0762 26.4286 41.2571C24.7714 40.419 22.8762 40 20.7429 40H19.1V43.1429H20.5714C22.0381 43.1429 23.3238 43.4286 24.4286 44C25.5524 44.5524 26.4095 45.3524 27 46.4C27.6095 47.4286 27.9143 48.6286 27.9143 50C27.9143 51.3714 27.6095 52.581 27 53.6286C26.4095 54.6571 25.5524 55.4571 24.4286 56.0286C23.3238 56.581 22.0381 56.8571 20.5714 56.8571H19.1V60Z" fill="#2A3135"/>
<path d="M47.8721 18.4884L43.9714 12H40L45.8918 21.7483L47.8721 18.4884Z" fill="#2A3135"/>
<path d="M47.8571 25.0617V32H51.5714V24.9429L59.4 12H55.7917L47.8571 25.0617Z" fill="#2A3135"/>
<path d="M15.7 12H12V32H15.7V12Z" fill="#2A3135"/>
<path d="M19.1 23.8827L25.9429 32H30.2857L21.3714 20.9429L29.7714 12H25.6L19.1 18.7443V23.8827Z" fill="#2A3135"/>
</svg>
