<svg width="40" height="40" viewBox="0 0 40 40" fill="none" xmlns="http://www.w3.org/2000/svg">
<path d="M12.5 8.75H9.92188V6.5625C9.92188 6.39062 9.78125 6.25 9.60938 6.25H7.57812C7.40625 6.25 7.26562 6.39062 7.26562 6.5625V8.75H4.6875C4.51562 8.75 4.375 8.89062 4.375 9.0625V30.9375C4.375 31.1094 4.51562 31.25 4.6875 31.25H7.26562V33.4375C7.26562 33.6094 7.40625 33.75 7.57812 33.75H9.60938C9.78125 33.75 9.92188 33.6094 9.92188 33.4375V31.25H12.5C12.6719 31.25 12.8125 31.1094 12.8125 30.9375V9.0625C12.8125 8.89062 12.6719 8.75 12.5 8.75ZM10.1562 28.5938H7.03125V11.4062H10.1562V28.5938ZM35.3125 11.5625H32.7344V7.8125C32.7344 7.64062 32.5938 7.5 32.4219 7.5H30.3906C30.2188 7.5 30.0781 7.64062 30.0781 7.8125V11.5625H27.5C27.3281 11.5625 27.1875 11.7031 27.1875 11.875V28.125C27.1875 28.2969 27.3281 28.4375 27.5 28.4375H30.0781V32.1875C30.0781 32.3594 30.2188 32.5 30.3906 32.5H32.4219C32.5938 32.5 32.7344 32.3594 32.7344 32.1875V28.4375H35.3125C35.4844 28.4375 35.625 28.2969 35.625 28.125V11.875C35.625 11.7031 35.4844 11.5625 35.3125 11.5625ZM32.9688 25.7812H29.8438V14.2188H32.9688V25.7812ZM23.9062 15.7812H21.3281V9.0625C21.3281 8.89062 21.1875 8.75 21.0156 8.75H18.9844C18.8125 8.75 18.6719 8.89062 18.6719 9.0625V15.7812H16.0938C15.9219 15.7812 15.7812 15.9219 15.7812 16.0938V23.9062C15.7812 24.0781 15.9219 24.2188 16.0938 24.2188H18.6719V30.9375C18.6719 31.1094 18.8125 31.25 18.9844 31.25H21.0156C21.1875 31.25 21.3281 31.1094 21.3281 30.9375V24.2188H23.9062C24.0781 24.2188 24.2188 24.0781 24.2188 23.9062V16.0938C24.2188 15.9219 24.0781 15.7812 23.9062 15.7812ZM21.5625 21.4453C21.5625 21.4764 21.5502 21.5062 21.5282 21.5282C21.5062 21.5502 21.4764 21.5625 21.4453 21.5625H18.5547C18.5236 21.5625 18.4938 21.5502 18.4718 21.5282C18.4498 21.5062 18.4375 21.4764 18.4375 21.4453V18.5547C18.4375 18.5236 18.4498 18.4938 18.4718 18.4718C18.4938 18.4498 18.5236 18.4375 18.5547 18.4375H21.4453C21.4764 18.4375 21.5062 18.4498 21.5282 18.4718C21.5502 18.4938 21.5625 18.5236 21.5625 18.5547V21.4453Z" fill="#2A3135"/>
</svg>
