<svg width="40" height="40" viewBox="0 0 40 40" fill="none" xmlns="http://www.w3.org/2000/svg">
<path d="M35.3125 29.1799H4.6875C4.51562 29.1799 4.375 29.3205 4.375 29.4924V31.6799C4.375 31.8518 4.51562 31.9924 4.6875 31.9924H35.3125C35.4844 31.9924 35.625 31.8518 35.625 31.6799V29.4924C35.625 29.3205 35.4844 29.1799 35.3125 29.1799ZM6.47266 24.2893L8.02344 25.8322C8.14453 25.9533 8.34375 25.9533 8.46484 25.8322L17.6328 16.6955L21.4453 20.4963C21.6802 20.729 21.9975 20.8596 22.3281 20.8596C22.6588 20.8596 22.9761 20.729 23.2109 20.4963L33.5312 10.215C33.6523 10.094 33.6523 9.89474 33.5312 9.77364L31.9805 8.22677C31.9217 8.16861 31.8424 8.13599 31.7598 8.13599C31.6771 8.13599 31.5978 8.16861 31.5391 8.22677L22.332 17.4065L18.5156 13.6057C18.2807 13.373 17.9635 13.2424 17.6328 13.2424C17.3022 13.2424 16.9849 13.373 16.75 13.6057L6.47266 23.8479C6.44344 23.8767 6.42024 23.9111 6.4044 23.949C6.38857 23.9868 6.38041 24.0275 6.38041 24.0686C6.38041 24.1096 6.38857 24.1503 6.4044 24.1882C6.42024 24.2261 6.44344 24.2604 6.47266 24.2893Z" fill="#2A3135"/>
</svg>
